<svg width="18" height="15" viewBox="0 0 18 15" fill="none" xmlns="http://www.w3.org/2000/svg">
<path d="M9.9 0.9V1.44C11.9531 1.85709 13.5 3.67312 13.5 5.85V6.37875C13.5 7.70344 13.9866 8.9775 14.8641 9.9675L15.0722 10.2009C15.3084 10.4681 15.3675 10.845 15.2212 11.1684C15.075 11.4919 14.7544 11.7 14.4 11.7H3.6C3.24563 11.7 2.89969 11.4919 2.77903 11.1684C2.63391 10.845 2.69184 10.4681 2.92781 10.2009L3.13594 9.9675C4.01344 8.9775 4.5 7.70344 4.5 6.37875V5.85C4.5 3.67312 6.02156 1.85709 8.1 1.44V0.9C8.1 0.403031 8.50219 0 9 0C9.49781 0 9.9 0.403031 9.9 0.9ZM9 14.4C8.52187 14.4 8.06344 14.2116 7.72594 13.8741C7.38844 13.5366 7.2 13.0528 7.2 12.6H10.8C10.8 13.0528 10.6116 13.5366 10.2741 13.8741C9.93656 14.2116 9.45281 14.4 9 14.4ZM0 5.625C0 5.25094 0.302344 4.95 0.675 4.95H2.925C3.29906 4.95 3.6 5.25094 3.6 5.625C3.6 5.99906 3.29906 6.3 2.925 6.3H0.675C0.302344 6.3 0 5.99906 0 5.625ZM17.325 4.95C17.6991 4.95 18 5.25094 18 5.625C18 5.99906 17.6991 6.3 17.325 6.3H15.075C14.7009 6.3 14.4 5.99906 14.4 5.625C14.4 5.25094 14.7009 4.95 15.075 4.95H17.325ZM16.8047 0.598219C16.9706 0.9315 16.8356 1.33706 16.5009 1.50384L14.7009 2.40384C14.3691 2.57034 13.9641 2.43534 13.7953 2.10178C13.6294 1.7685 13.7644 1.36294 14.0991 1.19616L15.8991 0.296156C16.2309 0.129544 16.6359 0.264713 16.8047 0.598219ZM1.49822 1.50384C1.16466 1.33706 1.02966 0.9315 1.19616 0.598219C1.36294 0.264713 1.7685 0.129544 2.10178 0.296156L3.90094 1.19616C4.23562 1.36294 4.37063 1.7685 4.20469 2.10178C4.03594 2.43534 3.63094 2.57034 3.29906 2.40384L1.49822 1.50384Z" fill="#49C264"/>
</svg>
