<svg width="50" height="40" viewBox="0 0 50 40" fill="none" xmlns="http://www.w3.org/2000/svg">
<g clip-path="url(#clip0_1_667)">
<path d="M27.5 28.75C27.5 22.5391 32.5391 17.5 38.75 17.5C44.9609 17.5 50 22.5391 50 28.75C50 34.9609 44.9609 40 38.75 40C32.5391 40 27.5 34.9609 27.5 28.75ZM40.2578 23.4922C39.7734 23 38.9766 23 38.4922 23.4922C38 23.9766 38 24.7734 38.4922 25.2578L40.7344 27.5H33.75C33.0625 27.5 32.5 28.0625 32.5 28.75C32.5 29.4375 33.0625 30 33.75 30H40.7344L38.4922 32.2422C38 32.7266 38 33.5234 38.4922 34.0078C38.9766 34.5 39.7734 34.5 40.2578 34.0078L44.6328 29.6328C45.125 29.1484 45.125 28.3516 44.6328 27.8672L40.2578 23.4922Z" fill="#FF8A00"/>
<path opacity="0.4" d="M0 3.75C0 1.67891 1.67891 0 3.75 0H26.25C28.3203 0 30 1.67891 30 3.75V18.1406C26.9453 20.6641 25 24.4766 25 28.75C25 32.6172 26.5937 36.1094 29.1641 38.6094C28.4766 39.4609 27.4297 40 26.25 40H18.75V33.75C18.75 31.6797 17.0703 30 15 30C12.9297 30 11.25 31.6797 11.25 33.75V40H3.75C1.67891 40 0 38.3203 0 36.25V3.75ZM6.25 17.5C5.55937 17.5 5 18.0625 5 18.75V21.25C5 21.9375 5.55937 22.5 6.25 22.5H8.75C9.4375 22.5 10 21.9375 10 21.25V18.75C10 18.0625 9.4375 17.5 8.75 17.5H6.25ZM12.5 21.25C12.5 21.9375 13.0625 22.5 13.75 22.5H16.25C16.9375 22.5 17.5 21.9375 17.5 21.25V18.75C17.5 18.0625 16.9375 17.5 16.25 17.5H13.75C13.0625 17.5 12.5 18.0625 12.5 18.75V21.25ZM21.25 17.5C20.5625 17.5 20 18.0625 20 18.75V21.25C20 21.9375 20.5625 22.5 21.25 22.5H23.75C24.4375 22.5 25 21.9375 25 21.25V18.75C25 18.0625 24.4375 17.5 23.75 17.5H21.25ZM5 11.25C5 11.9375 5.55937 12.5 6.25 12.5H8.75C9.4375 12.5 10 11.9375 10 11.25V8.75C10 8.0625 9.4375 7.5 8.75 7.5H6.25C5.55937 7.5 5 8.0625 5 8.75V11.25ZM13.75 7.5C13.0625 7.5 12.5 8.0625 12.5 8.75V11.25C12.5 11.9375 13.0625 12.5 13.75 12.5H16.25C16.9375 12.5 17.5 11.9375 17.5 11.25V8.75C17.5 8.0625 16.9375 7.5 16.25 7.5H13.75ZM20 11.25C20 11.9375 20.5625 12.5 21.25 12.5H23.75C24.4375 12.5 25 11.9375 25 11.25V8.75C25 8.0625 24.4375 7.5 23.75 7.5H21.25C20.5625 7.5 20 8.0625 20 8.75V11.25Z" fill="#FF8A00"/>
</g>
<defs>
<clipPath id="clip0_1_667">
<rect width="50" height="40" fill="white"/>
</clipPath>
</defs>
</svg>
