<svg width="14" height="14" viewBox="0 0 14 14" fill="none" xmlns="http://www.w3.org/2000/svg">
<g clip-path="url(#clip0_1_186)">
<path d="M4.78516 4.78516C5.04219 4.53086 5.45781 4.53086 5.69023 4.78516L6.97539 6.07305L8.28516 4.78516C8.54219 4.53086 8.95781 4.53086 9.19023 4.78516C9.46914 5.04219 9.46914 5.45781 9.19023 5.69023L7.92695 6.97539L9.19023 8.28516C9.46914 8.54219 9.46914 8.95781 9.19023 9.19023C8.95781 9.46914 8.54219 9.46914 8.28516 9.19023L6.97539 7.92695L5.69023 9.19023C5.45781 9.46914 5.04219 9.46914 4.78516 9.19023C4.53086 8.95781 4.53086 8.54219 4.78516 8.28516L6.07305 6.97539L4.78516 5.69023C4.53086 5.45781 4.53086 5.04219 4.78516 4.78516ZM14 7C14 10.8664 10.8664 14 7 14C3.13359 14 0 10.8664 0 7C0 3.13359 3.13359 0 7 0C10.8664 0 14 3.13359 14 7ZM7 1.3125C3.8582 1.3125 1.3125 3.8582 1.3125 7C1.3125 10.1418 3.8582 12.6875 7 12.6875C10.1418 12.6875 12.6875 10.1418 12.6875 7C12.6875 3.8582 10.1418 1.3125 7 1.3125Z" fill="#E91919"/>
</g>
<defs>
<clipPath id="clip0_1_186">
<rect width="14" height="14" fill="white"/>
</clipPath>
</defs>
</svg>
