<svg width="16" height="16" viewBox="0 0 16 16" fill="none" xmlns="http://www.w3.org/2000/svg">
<g clip-path="url(#clip0_1_166)">
<path d="M4.85312 9.35313L8 6.20625L11.1469 9.35313C11.3422 9.54844 11.6588 9.54844 11.8538 9.35313C12.0488 9.15781 12.0491 8.84125 11.8538 8.64625L8.35375 5.14625C8.25625 5.05 8.12813 5 8 5C7.87187 5 7.74413 5.04881 7.64656 5.1465L4.14656 8.6465C3.95125 8.84181 3.95125 9.15837 4.14656 9.35337C4.34188 9.54838 4.65937 9.55 4.85312 9.35313ZM8 16C12.4187 16 16 12.4187 16 8C16 3.58125 12.4187 0 8 0C3.58125 0 0 3.58125 0 8C0 12.4187 3.58125 16 8 16ZM8 1C11.8594 1 15 4.14062 15 8C15 11.8594 11.8594 15 8 15C4.14062 15 1 11.8594 1 8C1 4.14062 4.14063 1 8 1Z" fill="black"/>
</g>
<defs>
<clipPath id="clip0_1_166">
<rect width="16" height="16" fill="white" transform="matrix(-1 0 0 -1 16 16)"/>
</clipPath>
</defs>
</svg>
