<svg width="16" height="17" viewBox="0 0 16 17" fill="none" xmlns="http://www.w3.org/2000/svg">
<path d="M11.1469 7.14687L8 10.2937L4.85313 7.14687C4.65781 6.95156 4.34125 6.95156 4.14625 7.14687C3.95125 7.34219 3.95094 7.65875 4.14625 7.85375L7.64625 11.3538C7.74375 11.45 7.87187 11.5 8 11.5C8.12813 11.5 8.25587 11.4512 8.35344 11.3535L11.8534 7.8535C12.0487 7.65819 12.0487 7.34163 11.8534 7.14663C11.6581 6.95162 11.3406 6.95 11.1469 7.14687ZM8 0.5C3.58125 0.5 0 4.08125 0 8.5C0 12.9187 3.58125 16.5 8 16.5C12.4187 16.5 16 12.9187 16 8.5C16 4.08125 12.4187 0.5 8 0.5ZM8 15.5C4.14062 15.5 1 12.3594 1 8.5C1 4.64062 4.14062 1.5 8 1.5C11.8594 1.5 15 4.64062 15 8.5C15 12.3594 11.8594 15.5 8 15.5Z" fill="black"/>
</svg>
