<svg width="12" height="12" viewBox="0 0 12 12" fill="none" xmlns="http://www.w3.org/2000/svg">
<path d="M3.33334 6.00016C3.33334 4.52725 4.52709 3.3335 6 3.3335C7.47292 3.3335 8.66667 4.52725 8.66667 6.00016C8.66667 7.47308 7.47292 8.66683 6 8.66683C4.52709 8.66683 3.33334 7.47308 3.33334 6.00016ZM6 7.66683C6.92084 7.66683 7.66667 6.921 7.66667 6.00016C7.66667 5.07933 6.92084 4.3335 6 4.3335C5.98542 4.3335 5.97292 4.3335 5.93959 4.3335C5.98542 4.43975 6 4.55225 6 4.66683C6 5.40225 5.40209 6.00016 4.66667 6.00016C4.55209 6.00016 4.43959 5.98558 4.33334 5.93975C4.33334 5.97308 4.33334 5.98558 4.33334 5.98141C4.33334 6.921 5.07917 7.66683 6 7.66683ZM1.98792 3.01266C2.96875 2.101 4.31667 1.3335 6 1.3335C7.68334 1.3335 9.03125 2.101 10.0125 3.01266C10.9875 3.91683 11.6396 4.98141 11.9479 5.74391C12.0167 5.9085 12.0167 6.09183 11.9479 6.25641C11.6396 7.00016 10.9875 8.06475 10.0125 8.98766C9.03125 9.90016 7.68334 10.6668 6 10.6668C4.31667 10.6668 2.96875 9.90016 1.98792 8.98766C1.01292 8.06475 0.361253 7.00016 0.0512734 6.25641C-0.0170911 6.09183 -0.0170911 5.9085 0.0512734 5.74391C0.361253 4.98141 1.01292 3.91683 1.98792 3.01266ZM6 2.3335C4.64167 2.3335 3.525 2.95016 2.66875 3.74391C1.86667 4.48975 1.31292 5.35641 1.03 6.00016C1.31292 6.62516 1.86667 7.51058 2.66875 8.25641C3.525 9.05016 4.64167 9.66683 6 9.66683C7.35834 9.66683 8.475 9.05016 9.33125 8.25641C10.1333 7.51058 10.6688 6.62516 10.9708 6.00016C10.6688 5.35641 10.1333 4.48975 9.33125 3.74391C8.475 2.95016 7.35834 2.3335 6 2.3335Z" fill="#1C4B82"/>
</svg>
