<svg width="46" height="40" viewBox="0 0 46 40" fill="none" xmlns="http://www.w3.org/2000/svg">
<g clip-path="url(#clip0_1_631)">
<path d="M37.4844 12.7188L23.375 26.75C23.1328 26.9766 23 27.2969 23 27.6328V32.5H27.8703C28.2034 32.5 28.5227 32.367 28.757 32.1307L42.7883 18.0213L37.4844 12.7188ZM20.5 0V10H30.5L20.5 0Z" fill="#E076A9"/>
<path opacity="0.4" d="M20.5 0H4.25C2.17891 0 0.5 1.67891 0.5 3.75V36.25C0.5 38.3203 2.17891 40 4.25 40H26.75C28.8211 40 30.5 38.3211 30.5 36.25V30.3758L28.757 32.1305C28.5234 32.3672 28.2031 32.5 27.8672 32.5L20.5 32.4922C19.2445 32.4699 18.1133 31.7669 17.5461 30.6328C17.3203 30.1797 16.9141 30.125 16.75 30.125C16.5859 30.125 16.1836 30.1738 15.9688 30.6035L15.3634 31.8051C15.1563 32.2344 14.6484 32.5 14.25 32.5H14.1641C13.6562 32.4609 13.2219 32.1289 13.0656 31.6406L11.75 27.7031L10.9219 30.1953C10.4609 31.5703 9.10156 32.5 7.71875 32.5H6.75C6.05703 32.5 5.5 31.9453 5.5 31.25C5.5 30.5547 6.05703 30 6.75 30H7.71719C8.09805 30 8.43008 29.7559 8.54688 29.4043L9.97266 25.1363C10.2266 24.3672 10.9375 23.8516 11.75 23.8516C12.5625 23.8516 13.2734 24.3691 13.5273 25.1406L14.6117 28.393C16.1547 27.1234 18.8406 27.6312 19.768 29.4961C19.9141 29.7812 20.2031 29.9609 20.5 29.9844L23 29.9985V27.6329C23 27.2999 23.1329 26.9807 23.3693 26.7454L30.5 19.6641V10H20.5V0ZM44.9141 13.0781L42.4219 10.5859C41.6504 9.80469 40.3906 9.80469 39.6094 10.5859L37.4805 12.7148L42.7836 18.018L44.9125 15.8891C45.6953 15.1094 45.6953 13.8516 44.9141 13.0781Z" fill="#E076A9"/>
</g>
<defs>
<clipPath id="clip0_1_631">
<rect width="45" height="40" fill="white" transform="translate(0.5)"/>
</clipPath>
</defs>
</svg>
