<svg width="46" height="40" viewBox="0 0 46 40" fill="none" xmlns="http://www.w3.org/2000/svg">
<g clip-path="url(#clip0_1_636)">
<path d="M20.5 0V10H30.5L20.5 0ZM44.8828 23.0469L38.6328 16.7969C37.9004 16.0645 36.7141 16.0645 35.9813 16.7969C35.2484 17.5293 35.2488 18.7156 35.9813 19.4484L39.1016 22.5H17.375C16.3438 22.5 15.5 23.3438 15.5 24.375C15.5 25.4062 16.3398 26.25 17.375 26.25H39.1016L36.0523 29.2992C35.6797 29.6641 35.5 30.1406 35.5 30.625C35.5 31.1094 35.6831 31.5844 36.0493 31.9508C36.7817 32.6832 37.968 32.6832 38.7009 31.9508L44.9509 25.7008C45.6797 24.9688 45.6797 23.7812 44.8828 23.0469Z" fill="#E076A9"/>
<path opacity="0.4" d="M30.5 26.25V36.25C30.5 38.3211 28.8211 40 26.75 40H4.25C2.17891 40 0.5 38.3203 0.5 36.25V3.75C0.5 1.67891 2.17891 0 4.25 0H20.5V10H30.5V22.5H17.375C16.3438 22.5 15.5 23.3438 15.5 24.375C15.5 25.4062 16.3398 26.25 17.375 26.25H30.5Z" fill="#E076A9"/>
</g>
<defs>
<clipPath id="clip0_1_636">
<rect width="45" height="40" fill="white" transform="translate(0.5)"/>
</clipPath>
</defs>
</svg>
