<svg width="40" height="40" viewBox="0 0 40 40" fill="none" xmlns="http://www.w3.org/2000/svg">
<g clip-path="url(#clip0_1_687)">
<path d="M30 0V10H40L30 0ZM19.3281 18.9297C18.4531 18.0391 18.3046 17.9297 18.1015 17.25C18.0312 17.0234 17.9609 16.7344 17.8515 16.3281C17.7968 16.125 17.7265 15.9375 17.625 15.7656C17.3281 15.2422 16.8359 14.8516 16.2421 14.6875C15.2421 14.4141 14.9453 14.3594 14.5781 14.0625C14.4375 13.9453 14.2812 13.7891 13.9921 13.5703C13.9531 13.4609 13.7578 13.3281 13.6796 13.1875C13.4843 12.9844 13.2578 12.8438 13.0156 12.6641C12.9531 12.7031 12.8984 12.6797 12.8359 12.6562C12.5937 12.5625 12.3281 12.5 12.0625 12.5C12.0611 12.5 12.0638 12.5 12.0625 12.5C12.0623 12.5 12.0626 12.5 12.0625 12.5C12.0623 12.5 12.0626 12.5 12.0625 12.5C11.8671 12.5 11.6718 12.5234 11.4765 12.5781C11.4956 12.5729 11.5141 12.5751 11.5332 12.5708C11.5156 12.5078 11.4921 12.5703 11.4765 12.5781C10.6796 12.7969 10.3359 12.8984 9.92964 12.8984C9.58909 12.8984 9.25019 12.791 8.45933 12.5762C8.33589 12.5234 8.13277 12.5 7.93745 12.5C7.93608 12.5 7.93883 12.5 7.93745 12.5C7.67027 12.5 7.41089 12.5625 7.16245 12.6562C7.10073 12.6797 7.0437 12.7031 6.98433 12.6641C6.74292 12.8438 6.51323 12.9844 6.31948 13.1875C5.14761 14.3672 5.34292 14.25 3.76089 14.6875C2.97027 14.9062 2.35152 15.5312 2.14683 16.3281C1.98589 16.9375 1.90464 17.2891 1.80073 17.5469C1.62808 17.9922 1.39839 18.1875 0.672296 18.9297C0.525812 19.0703 0.405265 19.2344 0.305109 19.4141C0.00483537 19.9375 -0.0811412 20.5703 0.0799526 21.1797C0.50964 22.7906 0.499874 22.5664 0.0799526 24.1781C-0.0811412 24.7788 0.00482755 25.4125 0.305109 25.9391C0.405187 26.1145 0.525812 26.2781 0.672296 26.4246C1.53636 27.3105 1.69495 27.4223 1.90042 28.1027C1.96878 28.3295 2.03948 28.6194 2.14691 29.0223C2.35198 29.8332 2.97034 30.4582 3.76175 30.6723C4.32331 30.8237 4.54769 30.8823 4.67425 30.9225C4.80081 30.9627 4.83073 30.9848 5.00144 31.0629V40L10.0007 37.5L14.9999 40V31.0625C15.3319 30.9062 15.1171 30.9746 16.2397 30.6719C16.8328 30.5108 17.3264 30.1189 17.6233 29.5906C17.7222 29.4148 17.7996 29.2238 17.8509 29.0212C17.9583 28.6159 18.0308 28.3248 18.0985 28.0977C18.3011 27.4159 18.4539 27.3095 19.325 26.4235C19.911 25.8376 20.136 24.9782 19.9207 24.1774C19.5008 22.5665 19.491 22.7907 19.9207 21.179C20.1328 20.375 19.914 19.5156 19.3281 18.9297ZM9.99995 27.5C9.65448 27.5 9.31706 27.4652 8.99136 27.3987C8.34011 27.2656 7.73511 27.0059 7.20308 26.6467C6.67128 26.2872 6.21245 25.8288 5.85308 25.2967C5.31558 24.5 5.00151 23.5391 5.00151 22.5C5.00151 21.4609 5.31566 20.5016 5.85464 19.7031C6.2137 19.1712 6.67261 18.7125 7.20464 18.3531C7.73659 17.9939 8.34136 17.7342 8.99292 17.6012C9.32027 17.5312 9.6562 17.5 9.99995 17.5C12.7632 17.5 14.9992 19.7359 14.9992 22.5C14.9992 25.2641 12.7656 27.5 9.99995 27.5Z" fill="#7591B3"/>
<path opacity="0.4" d="M30 10V0H13.75C11.6797 0 10 1.67891 10 3.75L10.0001 10.3859C10.1354 10.3557 10.2972 10.3069 10.5219 10.2459L10.8183 10.1653C11.2235 10.0555 11.6418 9.99961 12.0605 9.99961C13.3285 9.99961 14.5683 10.5212 15.4629 11.4309L15.6771 11.6491C15.8466 11.8224 15.9652 11.9512 16.0698 12.0477C16.2019 12.091 16.3674 12.1309 16.5935 12.1926L16.8943 12.275C18.5427 12.7266 19.8279 14.0266 20.2646 15.6789L20.3524 16.0111C20.4142 16.2461 20.4534 16.4158 20.4972 16.5509C20.5941 16.6611 20.7254 16.7856 20.9042 16.9669L21.0926 17.1579C22.3083 18.3899 22.7817 20.1641 22.3333 21.836L22.2667 22.0841C22.197 22.3441 22.142 22.5251 22.1117 22.6746C22.1406 22.8125 22.1875 22.9766 22.25 23.2109L22.3347 23.5332C22.7809 25.1965 22.3048 26.9824 21.1066 28.1801L20.882 28.4077C20.7137 28.578 20.5887 28.697 20.4953 28.802C20.4515 28.9384 20.412 29.1099 20.3499 29.3471L20.2732 29.6383C19.9022 31.1047 18.8654 32.2992 17.4982 32.8781L17.4297 40H36.25C38.3211 40 40 38.3211 40 36.25V10H30Z" fill="#7591B3"/>
</g>
<defs>
<clipPath id="clip0_1_687">
<rect width="40" height="40" fill="white"/>
</clipPath>
</defs>
</svg>
