<svg width="46" height="40" viewBox="0 0 46 40" fill="none" xmlns="http://www.w3.org/2000/svg">
<g clip-path="url(#clip0_1_677)">
<path d="M18 12.5V0L30.5 12.5H18ZM23 28.75C23 22.5391 28.0391 17.5 34.25 17.5C40.4609 17.5 45.5 22.5391 45.5 28.75C45.5 34.9609 40.4609 40 34.25 40C28.0391 40 23 34.9609 23 28.75ZM35.5 23.6797C35.5 23.0625 34.9375 22.4297 34.25 22.4297C33.5625 22.4297 33 23.0625 33 23.6797V27.4297H29.25C28.5625 27.4297 28 28.0625 28 28.6797C28 29.4375 28.5625 29.9297 29.25 29.9297H33V33.6797C33 34.4375 33.5625 34.9297 34.25 34.9297C34.9375 34.9297 35.5 34.4375 35.5 33.6797V29.9297H39.25C39.9375 29.9297 40.5 29.4375 40.5 28.6797C40.5 28.0625 39.9375 27.4297 39.25 27.4297H35.5V23.6797Z" fill="#7591B3"/>
<path opacity="0.4" d="M0.5 5C0.5 2.23828 2.73828 0 5.5 0H18V12.5H30.5V15.5156C24.7266 17.1484 20.5 22.4531 20.5 28.75C20.5 33.3672 22.7734 37.4453 26.2578 39.9453C26.0156 39.9766 25.7578 40 25.5 40H5.5C2.73828 40 0.5 37.7578 0.5 35V5Z" fill="#7591B3"/>
</g>
<defs>
<clipPath id="clip0_1_677">
<rect width="45" height="40" fill="white" transform="translate(0.5)"/>
</clipPath>
</defs>
</svg>
