<svg width="16" height="19" viewBox="0 0 16 19" fill="none" xmlns="http://www.w3.org/2000/svg">
<path d="M6.85714 6.64286C6.85714 7.58929 6.08929 8.35714 5.14286 8.35714H1.71429C0.7675 8.35714 0 7.58929 0 6.64286V3.21429C0 2.2675 0.7675 1.5 1.71429 1.5H5.14286C6.08929 1.5 6.85714 2.2675 6.85714 3.21429V6.64286ZM16 15.7857C16 16.7321 15.2321 17.5 14.2857 17.5H10.8571C9.91072 17.5 9.14286 16.7321 9.14286 15.7857V12.3571C9.14286 11.4107 9.91072 10.6429 10.8571 10.6429H14.2857C15.2321 10.6429 16 11.4107 16 12.3571V15.7857Z" fill="#1C4B82"/>
<path opacity="0.4" d="M16 6.92857C16 7.71786 15.3607 8.35714 14.5714 8.35714H10.5714C9.78214 8.35714 9.14286 7.71786 9.14286 6.92857V2.92857C9.14286 2.13964 9.78214 1.5 10.5714 1.5H14.5714C15.3607 1.5 16 2.13964 16 2.92857V6.92857ZM6.85714 16.0714C6.85714 16.8607 6.21786 17.5 5.42857 17.5H1.42857C0.639643 17.5 0 16.8607 0 16.0714V12.0714C0 11.2821 0.639643 10.6429 1.42857 10.6429H5.42857C6.21786 10.6429 6.85714 11.2821 6.85714 12.0714V16.0714Z" fill="#1C4B82"/>
</svg>
