<svg width="18" height="19" viewBox="0 0 18 19" fill="none" xmlns="http://www.w3.org/2000/svg">
<g clip-path="url(#clip0_1_227)">
<path d="M5.59336 7.25H5.0625C3.82008 7.25 2.8125 8.25758 2.8125 9.50281V11.1829C2.8125 12.4285 3.82148 13.4375 5.0625 13.4375H5.625C6.24586 13.4375 6.75 12.9327 6.75 12.3104L6.71836 8.375C6.71836 7.75273 6.24375 7.25 5.59336 7.25ZM12.9375 7.25H12.375C11.7541 7.25 11.25 7.75414 11.25 8.37641V12.309C11.25 12.9348 11.7527 13.4375 12.375 13.4375H12.9375C14.1799 13.4375 15.1875 12.4285 15.1875 11.1829V9.50352C15.1875 8.25898 14.1785 7.25 12.9375 7.25Z" fill="#1C4B82"/>
<path opacity="0.4" d="M9 0.5C3.96914 0.5 0.161121 4.68711 0.00073125 9.5L0 10.9062C0 11.3738 0.37793 11.75 0.812109 11.75C1.24629 11.75 1.6875 11.3738 1.6875 10.9062V9.5C1.6875 5.46758 4.96898 2.19453 9 2.19453C13.0324 2.19453 16.3125 5.46758 16.3125 9.5V14.5625C16.3125 15.3391 15.6829 15.9688 14.9062 15.9688H11.0145C10.7227 15.466 10.1848 15.125 9.5625 15.125H8.50078C7.6848 15.125 6.93633 15.6766 6.78269 16.4782C6.57422 17.5578 7.39688 18.5 8.40586 18.5H9.5625C10.1855 18.5 10.7237 18.1586 11.0159 17.6562H14.9062C16.6148 17.6562 18 16.2711 18 14.5625V9.5C17.8383 4.68711 14.0309 0.5 9 0.5Z" fill="#1C4B82"/>
</g>
<defs>
<clipPath id="clip0_1_227">
<rect width="18" height="18" fill="white" transform="translate(0 0.5)"/>
</clipPath>
</defs>
</svg>
