<svg width="18" height="17" viewBox="0 0 18 17" fill="none" xmlns="http://www.w3.org/2000/svg">
<g clip-path="url(#clip0_1_222)">
<path d="M12.9999 3.67211V2.50024C12.9999 1.94805 13.4468 1.50024 13.9999 1.50024H14.9999C15.5531 1.50024 15.9999 1.94805 15.9999 2.50024V6.29711L17.6593 7.74711C18.0749 8.11274 18.1156 8.74399 17.7531 9.15961C17.3874 9.57524 16.7562 9.61586 16.3406 9.25336L8.99994 2.82899L1.65838 9.25336C1.24275 9.61586 0.61119 9.57524 0.247346 9.15961C-0.11631 8.74399 -0.074185 8.11274 0.341502 7.74711L8.34056 0.747674C8.69057 0.417768 9.28119 0.417768 9.65932 0.747674L12.9999 3.67211ZM10.9999 8.50024C10.9999 9.60336 10.1031 10.5002 8.99994 10.5002C7.89681 10.5002 6.99994 9.60336 6.99994 8.50024C6.99994 7.39711 7.89681 6.50024 8.99994 6.50024C10.1031 6.50024 10.9999 7.39711 10.9999 8.50024ZM9.99994 11.5002C11.3812 11.5002 12.4999 12.619 12.4999 14.0002C12.4999 14.2752 12.2749 14.5002 11.9999 14.5002H5.99994C5.72494 14.5002 5.49994 14.2752 5.49994 14.0002C5.49994 12.619 6.61869 11.5002 7.99994 11.5002H9.99994Z" fill="#1C4B82"/>
<path opacity="0.4" d="M8.99999 2.82886L16.0031 8.95636L16.0156 14.497C16.0187 15.6032 15.1219 16.5001 14.0156 16.5001H4.00311C2.89811 16.5001 2.0028 15.6064 2.00217 14.5001L2.00061 8.95323L8.99999 2.82886ZM8.99999 10.5001C10.1031 10.5001 11 9.60323 11 8.50011C11 7.39698 10.1031 6.50011 8.99999 6.50011C7.89686 6.50011 6.99999 7.39698 6.99999 8.50011C6.99999 9.60323 7.89686 10.5001 8.99999 10.5001ZM5.99999 14.5001H12C12.275 14.5001 12.5 14.2751 12.5 14.0001C12.5 12.6189 11.3812 11.5001 9.99999 11.5001H7.99999C6.61874 11.5001 5.49999 12.6189 5.49999 14.0001C5.49999 14.2751 5.72499 14.5001 5.99999 14.5001Z" fill="#1C4B82"/>
</g>
<defs>
<clipPath id="clip0_1_222">
<rect width="18" height="16" fill="white" transform="translate(0 0.5)"/>
</clipPath>
</defs>
</svg>
