<svg width="50" height="40" viewBox="0 0 50 40" fill="none" xmlns="http://www.w3.org/2000/svg">
<g clip-path="url(#clip0_1_682)">
<path d="M48.75 2.5C49.4375 2.5 50 3.05938 50 3.75V13.75C50 14.4375 49.4375 15 48.75 15H40V40H35V2.5C35 1.11953 36.1172 0 37.5 0C38.8828 0 40 1.11953 40 2.5H48.75Z" fill="#7591B3"/>
<path opacity="0.4" d="M32.5 40.0002H32.5078C32.5703 40.0002 32.5625 40.0002 32.5625 40.0002H27.5C26.1172 40.0002 25 38.883 25 37.5002V30.0002C25 28.6174 23.8828 27.5002 22.5 27.5002H17.5C16.1172 27.5002 15 28.6174 15 30.0002V37.5002C15 38.883 13.8828 40.0002 12.5 40.0002H7.49999C6.11952 40.0002 4.99999 38.883 4.99999 37.5002V22.4299H2.42968C1.45311 22.4299 0.51788 21.8518 0.154912 20.8674C-0.208057 19.883 0.0783492 18.7814 0.872646 18.1018L18.375 3.10176C19.3125 2.29941 20.6875 2.29941 21.625 3.10176L32.5 12.4221V40.0002Z" fill="#7591B3"/>
</g>
<defs>
<clipPath id="clip0_1_682">
<rect width="50" height="40" fill="white"/>
</clipPath>
</defs>
</svg>
