<svg width="46" height="40" viewBox="0 0 46 40" fill="none" xmlns="http://www.w3.org/2000/svg">
<g clip-path="url(#clip0_1_657)">
<path d="M21.3518 0.619063C22.2268 -0.205703 23.7034 -0.205703 24.6487 0.619063L44.6487 18.1177C45.6877 19.0317 45.7893 20.6098 44.883 21.6489C43.969 22.688 42.3909 22.7895 41.3518 21.8833L23.0002 5.82234L4.64633 21.8833C3.60727 22.7895 2.02836 22.688 1.11883 21.6489C0.209609 20.6098 0.314922 19.0317 1.35414 18.1177L21.3518 0.619063ZM30.5002 20.6255C31.1877 20.6255 31.7502 21.188 31.7502 21.8755V25.6255C31.7502 26.313 31.1877 26.8755 30.5002 26.8755H26.1252V31.2505C26.1252 31.938 25.5627 32.5005 24.8752 32.5005H21.1252C20.4377 32.5005 19.8752 31.938 19.8752 31.2505V26.8755H15.5002C14.8127 26.8755 14.2502 26.313 14.2502 25.6255V21.8755C14.2502 21.188 14.8127 20.6255 15.5002 20.6255H19.8752V16.2505C19.8752 15.563 20.4377 15.0005 21.1252 15.0005H24.8752C25.5627 15.0005 26.1252 15.563 26.1252 16.2505V20.6255H30.5002Z" fill="#FF8A00"/>
<path opacity="0.4" d="M22.9999 5.82178L40.5077 21.1405L40.539 34.9921C40.5468 37.7577 38.3046 39.9999 35.539 39.9999H10.5077C7.74522 39.9999 5.50693 37.7655 5.50537 34.9999L5.50146 21.1327L22.9999 5.82178ZM31.7499 21.8749C31.7499 21.1874 31.1874 20.6249 30.4999 20.6249H26.1249V16.2499C26.1249 15.5624 25.5624 14.9999 24.8749 14.9999H21.1249C20.4374 14.9999 19.8749 15.5624 19.8749 16.2499V20.6249H15.4999C14.8124 20.6249 14.2499 21.1874 14.2499 21.8749V25.6249C14.2499 26.3124 14.8124 26.8749 15.4999 26.8749H19.8749V31.2499C19.8749 31.9374 20.4374 32.4999 21.1249 32.4999H24.8749C25.5624 32.4999 26.1249 31.9374 26.1249 31.2499V26.8749H30.4999C31.1874 26.8749 31.7499 26.3124 31.7499 25.6249V21.8749Z" fill="#FF8A00"/>
</g>
<defs>
<clipPath id="clip0_1_657">
<rect width="45" height="40" fill="white" transform="translate(0.5)"/>
</clipPath>
</defs>
</svg>
