<svg width="50" height="40" viewBox="0 0 50 40" fill="none" xmlns="http://www.w3.org/2000/svg">
<g clip-path="url(#clip0_1_641)">
<path d="M27.5 28.75C27.5 22.5391 32.5391 17.5 38.75 17.5C44.9609 17.5 50 22.5391 50 28.75C50 34.9609 44.9609 40 38.75 40C32.5391 40 27.5 34.9609 27.5 28.75ZM44.0078 27.1328C44.5 26.6484 44.5 25.8516 44.0078 25.3672C43.5234 24.875 42.7266 24.875 42.2422 25.3672L37.5 30.1094L35.2578 27.8672C34.7734 27.375 33.9766 27.375 33.4922 27.8672C33 28.3516 33 29.1484 33.4922 29.6328L36.6172 32.7578C37.1016 33.25 37.8984 33.25 38.3828 32.7578L44.0078 27.1328Z" fill="#E076A9"/>
<path opacity="0.4" d="M38.75 15C31.5781 15 25.6875 20.4922 25.0547 27.5H25H20C18.6172 27.5 17.5 28.6172 17.5 30V36.875C17.5 38.6016 16.1016 40 14.375 40H10.0078C9.89062 40 9.77344 39.9922 9.65625 39.9844C9.5625 39.9922 9.46875 40 9.375 40H8.125C6.39922 40 5 38.6016 5 36.875V28.125C5 28.0547 5.00234 27.9766 5.00703 27.9062V22.4688H2.50391C1.09531 22.4688 0 21.3672 0 19.9609C0 19.2578 0.234688 18.6328 0.782031 18.0859L20.8125 0.62625C21.3594 0.0782812 21.9844 0 22.5312 0C23.0781 0 23.7031 0.156562 24.1797 0.547969L40.7891 15.1484C40.125 15.0547 39.4453 15 38.75 15Z" fill="#E076A9"/>
</g>
<defs>
<clipPath id="clip0_1_641">
<rect width="50" height="40" fill="white"/>
</clipPath>
</defs>
</svg>
