<svg width="50" height="40" viewBox="0 0 50 40" fill="none" xmlns="http://www.w3.org/2000/svg">
<g clip-path="url(#clip0_1_616)">
<path d="M2.34375e-05 36.2499V21.6483C2.34375e-05 20.6015 0.441172 19.5937 1.21641 18.8827L12.4688 8.57021C13.8984 7.2585 16.1016 7.2585 17.5312 8.57021L28.7812 18.8827C29.5625 19.5937 30 20.6015 30 21.6483V36.2499C30 38.3202 28.3203 39.9999 26.25 39.9999H3.75C1.67891 39.9999 0 38.3202 0 36.2499H2.34375e-05ZM13.125 21.2499C12.0859 21.2499 11.25 22.0858 11.25 23.1249V26.8749C11.25 27.914 12.0859 28.7499 13.125 28.7499H16.875C17.9141 28.7499 18.75 27.914 18.75 26.8749V23.1249C18.75 22.0858 17.9141 21.2499 16.875 21.2499H13.125Z" fill="#49C264"/>
<path opacity="0.4" d="M25 3.75C25 1.67891 26.6797 0 28.75 0H46.25C48.3203 0 50 1.67891 50 3.75V36.25C50 38.3203 48.3203 40 46.25 40H31.25C32.0312 38.9531 32.5 37.6562 32.5 36.25V27.5H33.75C34.4375 27.5 35 26.9375 35 26.25V23.75C35 23.0625 34.4375 22.5 33.75 22.5H32.5V21.6484C32.5 21.0859 32.4219 20.5312 32.2813 20H33.75C34.4375 20 35 19.4375 35 18.75V16.25C35 15.5625 34.4375 15 33.75 15H31.25C30.5625 15 30 15.5625 30 16.25V16.6094L25 12.0234V3.75ZM41.25 15C40.5625 15 40 15.5625 40 16.25V18.75C40 19.4375 40.5625 20 41.25 20H43.75C44.4375 20 45 19.4375 45 18.75V16.25C45 15.5625 44.4375 15 43.75 15H41.25ZM40 26.25C40 26.9375 40.5625 27.5 41.25 27.5H43.75C44.4375 27.5 45 26.9375 45 26.25V23.75C45 23.0625 44.4375 22.5 43.75 22.5H41.25C40.5625 22.5 40 23.0625 40 23.75V26.25ZM30 11.25C30 11.9375 30.5625 12.5 31.25 12.5H33.75C34.4375 12.5 35 11.9375 35 11.25V8.75C35 8.0625 34.4375 7.5 33.75 7.5H31.25C30.5625 7.5 30 8.0625 30 8.75V11.25ZM41.25 7.5C40.5625 7.5 40 8.0625 40 8.75V11.25C40 11.9375 40.5625 12.5 41.25 12.5H43.75C44.4375 12.5 45 11.9375 45 11.25V8.75C45 8.0625 44.4375 7.5 43.75 7.5H41.25Z" fill="#49C264"/>
</g>
<defs>
<clipPath id="clip0_1_616">
<rect width="50" height="40" fill="white"/>
</clipPath>
</defs>
</svg>
