<svg width="18" height="17" viewBox="0 0 18 17" fill="none" xmlns="http://www.w3.org/2000/svg">
<g clip-path="url(#clip0_1_506)">
<path d="M13 3.67236V2.50048C13 1.94829 13.4469 1.50048 14 1.50048H15C15.5531 1.50048 16 1.94829 16 2.50048V6.29736L17.6594 7.74736C18.075 8.11298 18.1156 8.74423 17.7531 9.15986C17.3875 9.57548 16.7563 9.61611 16.3406 9.25361L9 2.82923L1.65844 9.25361C1.24281 9.61611 0.611251 9.57548 0.247407 9.15986C-0.116249 8.74423 -0.074124 8.11298 0.341564 7.74736L8.34063 0.747918C8.69063 0.418012 9.28125 0.418012 9.65938 0.747918L13 3.67236ZM11 8.50048C11 9.60361 10.1031 10.5005 9 10.5005C7.89688 10.5005 7 9.60361 7 8.50048C7 7.39736 7.89688 6.50048 9 6.50048C10.1031 6.50048 11 7.39736 11 8.50048ZM10 11.5005C11.3813 11.5005 12.5 12.6192 12.5 14.0005C12.5 14.2755 12.275 14.5005 12 14.5005H6C5.725 14.5005 5.5 14.2755 5.5 14.0005C5.5 12.6192 6.61875 11.5005 8 11.5005H10Z" fill="white"/>
<path opacity="0.4" d="M8.99999 2.82861L16.0031 8.95611L16.0156 14.4967C16.0187 15.603 15.1219 16.4999 14.0156 16.4999H4.00311C2.89811 16.4999 2.0028 15.6061 2.00217 14.4999L2.00061 8.95299L8.99999 2.82861ZM8.99999 10.4999C10.1031 10.4999 11 9.60299 11 8.49986C11 7.39674 10.1031 6.49986 8.99999 6.49986C7.89686 6.49986 6.99999 7.39674 6.99999 8.49986C6.99999 9.60299 7.89686 10.4999 8.99999 10.4999ZM5.99999 14.4999H12C12.275 14.4999 12.5 14.2749 12.5 13.9999C12.5 12.6186 11.3812 11.4999 9.99999 11.4999H7.99999C6.61874 11.4999 5.49999 12.6186 5.49999 13.9999C5.49999 14.2749 5.72499 14.4999 5.99999 14.4999Z" fill="white"/>
</g>
<defs>
<clipPath id="clip0_1_506">
<rect width="18" height="16" fill="white" transform="translate(0 0.5)"/>
</clipPath>
</defs>
</svg>
