<svg width="39" height="8" viewBox="0 0 39 8" fill="none" xmlns="http://www.w3.org/2000/svg">
<path d="M0.646446 3.64645C0.451183 3.84171 0.451183 4.15829 0.646446 4.35355L3.82843 7.53553C4.02369 7.7308 4.34027 7.7308 4.53553 7.53553C4.73079 7.34027 4.73079 7.02369 4.53553 6.82843L1.7071 4L4.53553 1.17157C4.73079 0.976311 4.73079 0.659728 4.53553 0.464466C4.34027 0.269204 4.02369 0.269204 3.82843 0.464466L0.646446 3.64645ZM37.4167 3.5C37.1405 3.5 36.9167 3.72386 36.9167 4C36.9167 4.27614 37.1405 4.5 37.4167 4.5V3.5ZM34.25 4.5C34.5261 4.5 34.75 4.27614 34.75 4C34.75 3.72386 34.5261 3.5 34.25 3.5V4.5ZM31.0833 3.5C30.8072 3.5 30.5833 3.72386 30.5833 4C30.5833 4.27614 30.8072 4.5 31.0833 4.5V3.5ZM27.9167 4.5C28.1928 4.5 28.4167 4.27614 28.4167 4C28.4167 3.72386 28.1928 3.5 27.9167 3.5V4.5ZM24.75 3.5C24.4739 3.5 24.25 3.72386 24.25 4C24.25 4.27614 24.4739 4.5 24.75 4.5V3.5ZM21.5833 4.5C21.8595 4.5 22.0833 4.27614 22.0833 4C22.0833 3.72386 21.8595 3.5 21.5833 3.5V4.5ZM18.4167 3.5C18.1405 3.5 17.9167 3.72386 17.9167 4C17.9167 4.27614 18.1405 4.5 18.4167 4.5V3.5ZM15.25 4.5C15.5261 4.5 15.75 4.27614 15.75 4C15.75 3.72386 15.5261 3.5 15.25 3.5V4.5ZM12.0833 3.5C11.8072 3.5 11.5833 3.72386 11.5833 4C11.5833 4.27614 11.8072 4.5 12.0833 4.5V3.5ZM8.91667 4.5C9.19281 4.5 9.41667 4.27614 9.41667 4C9.41667 3.72386 9.19281 3.5 8.91667 3.5V4.5ZM5.75 3.5C5.47386 3.5 5.25 3.72386 5.25 4C5.25 4.27614 5.47386 4.5 5.75 4.5V3.5ZM2.58333 4.5C2.85947 4.5 3.08333 4.27614 3.08333 4C3.08333 3.72386 2.85947 3.5 2.58333 3.5V4.5ZM39 3.5H37.4167V4.5H39V3.5ZM34.25 3.5L31.0833 3.5V4.5H34.25V3.5ZM27.9167 3.5L24.75 3.5V4.5H27.9167V3.5ZM21.5833 3.5L18.4167 3.5V4.5L21.5833 4.5V3.5ZM15.25 3.5L12.0833 3.5V4.5L15.25 4.5V3.5ZM8.91667 3.5L5.75 3.5V4.5L8.91667 4.5V3.5ZM2.58333 3.5H1V4.5H2.58333V3.5Z" fill="#AAB7C6"/>
</svg>
