<svg width="46" height="40" viewBox="0 0 46 40" fill="none" xmlns="http://www.w3.org/2000/svg">
<g clip-path="url(#clip0_1_662)">
<path d="M23 28.75C23 22.5391 28.0391 17.5 34.25 17.5C40.4609 17.5 45.5 22.5391 45.5 28.75C45.5 34.9609 40.4609 40 34.25 40C28.0391 40 23 34.9609 23 28.75ZM39.5078 27.1328C40 26.6484 40 25.8516 39.5078 25.3672C39.0234 24.875 38.2266 24.875 37.7422 25.3672L33 30.1094L30.7578 27.8672C30.2734 27.375 29.4766 27.375 28.9922 27.8672C28.5 28.3516 28.5 29.1484 28.9922 29.6328L32.1172 32.7578C32.6016 33.25 33.3984 33.25 33.8828 32.7578L39.5078 27.1328Z" fill="#FF8A00"/>
<path opacity="0.4" d="M25.5 0C28.2578 0 30.5 2.23828 30.5 5V15.5156C24.7266 17.1484 20.5 22.4531 20.5 28.75C20.5 33.3672 22.7734 37.4453 26.2578 39.9453C26.0156 39.9766 25.7578 40 25.5 40H5.5C2.73828 40 0.5 37.7578 0.5 35V5C0.5 2.23828 2.73828 0 5.5 0H25.5ZM6.75 10C6.05937 10 5.5 10.5625 5.5 11.25C5.5 11.9375 6.05937 12.5 6.75 12.5H24.25C24.9375 12.5 25.5 11.9375 25.5 11.25C25.5 10.5625 24.9375 10 24.25 10H6.75ZM6.75 20H19.25C19.9375 20 20.5 19.4375 20.5 18.75C20.5 18.0625 19.9375 17.5 19.25 17.5H6.75C6.05937 17.5 5.5 18.0625 5.5 18.75C5.5 19.4375 6.05937 20 6.75 20ZM6.75 27.5H14.25C14.9375 27.5 15.5 26.9375 15.5 26.25C15.5 25.5625 14.9375 25 14.25 25H6.75C6.05937 25 5.5 25.5625 5.5 26.25C5.5 26.9375 6.05937 27.5 6.75 27.5Z" fill="#FF8A00"/>
</g>
<defs>
<clipPath id="clip0_1_662">
<rect width="45" height="40" fill="white" transform="translate(0.5)"/>
</clipPath>
</defs>
</svg>
