<svg width="50" height="40" viewBox="0 0 50 40" fill="none" xmlns="http://www.w3.org/2000/svg">
<g clip-path="url(#clip0_1_621)">
<path d="M43.6016 4.92968L41.7969 3.20077C41.0703 2.46874 41.0703 1.28124 41.7969 0.549209C42.5312 -0.183057 43.7188 -0.183057 44.3828 0.549131L49.3828 5.54843C49.8047 5.89999 50 6.37733 50 6.87421C50 7.37187 49.8047 7.85155 49.3828 8.1328L44.3828 13.1328C43.7188 13.9297 42.5312 13.9297 41.7969 13.1328C41.0703 12.4687 41.0703 11.2812 41.7969 10.5469L43.6016 8.67968H30C28.9609 8.67968 28.125 7.90624 28.125 6.87421C28.125 5.83905 28.9609 4.99921 30 4.99921L43.6016 4.92968ZM19.9297 31.1797C21.0391 31.1797 21.8047 32.0859 21.8047 33.0547C21.8047 34.1562 21.0391 34.9297 19.9297 34.9297L6.40234 35L8.13281 36.7969C8.92969 37.5312 8.92969 38.7187 8.13281 39.3828C7.46875 40.1797 6.28125 40.1797 5.54922 39.3828L0.549141 34.3828C0.1975 34.1016 -2.34354e-05 33.625 2.08553e-09 33.0547C2.08553e-09 32.625 0.197578 32.1484 0.549219 31.7969L5.54922 26.7969C6.28125 26.0703 7.46875 26.0703 8.13281 26.7969C8.92969 27.5312 8.92969 28.7187 8.13281 29.3828L6.40156 31.25L19.9297 31.1797Z" fill="#49C264"/>
<path opacity="0.4" d="M25.9375 6.87422C25.9375 9.11719 27.7578 10.8672 30 10.8672H37.5859C37.8516 12.3047 38.6641 13.4766 39.7969 14.2109C39.9297 14.3984 40.0859 14.5781 40.25 14.75C41.8359 16.3359 44.4141 16.3359 46 14.75L47.5 13.2422V30C47.5 32.7578 45.2578 35 42.5 35H23.6016C23.8984 34.4375 23.9922 33.8047 23.9922 33.0547C23.9922 30.8828 22.2422 28.9922 19.9297 28.9922H12.4141C12.1484 27.6953 11.3359 26.5234 10.2031 25.7891C10.0703 25.6016 9.91406 25.4219 9.75 25.25C8.16406 23.6641 5.58906 23.6641 4.00234 25.25L2.5 26.7578V10C2.5 7.23828 4.73828 5 7.5 5H26.3984C26.1016 5.56094 25.9375 6.19844 25.9375 6.87422ZM7.5 9.92969V14.9297C10.2578 14.9297 12.5 12.7578 12.5 9.92969H7.5ZM42.5 24.9297C39.7422 24.9297 37.5 27.2422 37.5 30H42.5V24.9297ZM25 12.4297C20.7891 12.4297 17.5 15.7891 17.5 19.9297C17.5 24.1406 20.7891 27.5 25 27.5C29.1406 27.5 32.5 24.1406 32.5 19.9297C32.5 15.7891 29.1406 12.4297 25 12.4297Z" fill="#49C264"/>
</g>
<defs>
<clipPath id="clip0_1_621">
<rect width="50" height="40" fill="white"/>
</clipPath>
</defs>
</svg>
