<svg width="18" height="15" viewBox="0 0 18 15" fill="none" xmlns="http://www.w3.org/2000/svg">
<g clip-path="url(#clip0_1_232)">
<path d="M15.6966 2.07498L15.0469 1.45257C14.7853 1.18904 14.7853 0.761539 15.0469 0.498008C15.3112 0.234393 15.7387 0.234393 15.9778 0.49798L17.7778 2.29773C17.9297 2.42429 18 2.59613 18 2.77501C18 2.95416 17.9297 3.12685 17.7778 3.2281L15.9778 5.0281C15.7387 5.31498 15.3112 5.31498 15.0469 5.0281C14.7853 4.78904 14.7853 4.36154 15.0469 4.09716L15.6966 3.42498H10.8C10.4259 3.42498 10.125 3.14654 10.125 2.77501C10.125 2.40235 10.4259 2.10001 10.8 2.10001L15.6966 2.07498ZM7.17469 11.525C7.57406 11.525 7.84969 11.8512 7.84969 12.2C7.84969 12.5965 7.57406 12.875 7.17469 12.875L2.30484 12.9003L2.92781 13.5472C3.21469 13.8115 3.21469 14.239 2.92781 14.4781C2.68875 14.765 2.26125 14.765 1.99772 14.4781L0.197691 12.6781C0.0711 12.5769 -8.43675e-06 12.4053 7.50789e-10 12.2C7.50789e-10 12.0453 0.0711281 11.8737 0.197719 11.7472L1.99772 9.94716C2.26125 9.6856 2.68875 9.6856 2.92781 9.94716C3.21469 10.2115 3.21469 10.639 2.92781 10.8781L2.30456 11.5503L7.17469 11.525Z" fill="#1C4B82"/>
<path opacity="0.4" d="M9.33752 2.77482C9.33752 3.58228 9.99284 4.21229 10.8 4.21229H13.531C13.6266 4.72978 13.9191 5.15166 14.3269 5.41603C14.3747 5.48353 14.431 5.54822 14.49 5.6101C15.061 6.18104 15.9891 6.18104 16.56 5.6101L17.1 5.06728V11.1001C17.1 12.0929 16.2928 12.9001 15.3 12.9001H8.49659C8.60346 12.6976 8.63721 12.4698 8.63721 12.1998C8.63721 11.4179 8.00721 10.7373 7.17471 10.7373H4.46909C4.37346 10.2704 4.08096 9.84853 3.67315 9.58416C3.62534 9.51666 3.56909 9.45197 3.51002 9.3901C2.93909 8.81916 2.01209 8.81916 1.44087 9.3901L0.900024 9.93291V3.9001C0.900024 2.90588 1.70581 2.1001 2.70002 2.1001H9.50346C9.39659 2.30204 9.33752 2.53154 9.33752 2.77482ZM2.70002 3.87478V5.67478C3.69284 5.67478 4.50002 4.89291 4.50002 3.87478H2.70002ZM15.3 9.27478C14.3072 9.27478 13.5 10.1073 13.5 11.1001H15.3V9.27478ZM9.00002 4.77479C7.48409 4.77479 6.30002 5.98416 6.30002 7.47478C6.30002 8.99072 7.48409 10.2001 9.00002 10.2001C10.4907 10.2001 11.7 8.99072 11.7 7.47478C11.7 5.98416 10.4907 4.77479 9.00002 4.77479Z" fill="#1C4B82"/>
</g>
<defs>
<clipPath id="clip0_1_232">
<rect width="18" height="14.4" fill="white" transform="translate(0 0.300049)"/>
</clipPath>
</defs>
</svg>
