<svg width="18" height="19" viewBox="0 0 18 19" fill="none" xmlns="http://www.w3.org/2000/svg">
<path d="M17.7469 10.1152L12.6809 14.8964C12.4356 15.1277 12.0762 15.1908 11.7668 15.0579C11.4573 14.9244 11.2567 14.6195 11.2567 14.2827L11.2534 11.7831L6.75345 11.7831C6.13154 11.7831 5.62775 11.2793 5.62775 10.6581V8.40808C5.62775 7.78687 6.13189 7.28308 6.75345 7.28308L11.2534 7.28311L11.2567 4.75186C11.2567 4.41514 11.4573 4.11026 11.7668 3.97667C12.0763 3.84374 12.4358 3.90692 12.6809 4.13818L17.7469 8.91943C18.0844 9.20461 18.0844 9.79524 17.7469 10.1152Z" fill="#E91919"/>
<path opacity="0.4" d="M3.375 17.375H5.625C6.24727 17.375 6.75 16.8723 6.75 16.25C6.75 15.6277 6.24727 15.125 5.625 15.125H3.375C2.75379 15.125 2.25 14.6212 2.25 14V5C2.25 4.37879 2.75379 3.875 3.375 3.875H5.625C6.24727 3.875 6.75 3.37121 6.75 2.75C6.75 2.12879 6.24727 1.625 5.625 1.625H3.375C1.51102 1.625 0 3.13602 0 5V14C0 15.8633 1.51102 17.375 3.375 17.375Z" fill="#E91919"/>
</svg>
