<svg width="50" height="40" viewBox="0 0 50 40" fill="none" xmlns="http://www.w3.org/2000/svg">
<path d="M27.5 28.75C27.5 22.5391 32.5391 17.5 38.75 17.5C44.9609 17.5 50 22.5391 50 28.75C50 34.9609 44.9609 40 38.75 40C32.5391 40 27.5 34.9609 27.5 28.75ZM44.0078 27.1328C44.5 26.6484 44.5 25.8516 44.0078 25.3672C43.5234 24.875 42.7266 24.875 42.2422 25.3672L37.5 30.1094L35.2578 27.8672C34.7734 27.375 33.9766 27.375 33.4922 27.8672C33 28.3516 33 29.1484 33.4922 29.6328L36.6172 32.7578C37.1016 33.25 37.8984 33.25 38.3828 32.7578L44.0078 27.1328Z" fill="#FF8A00"/>
<path opacity="0.4" d="M22.5 7.5C22.5 8.88281 23.6172 10 25 10C26.3828 10 27.5 8.88281 27.5 7.5V2.5H33.3438C35.4609 2.5 37.3438 3.83437 38.0547 5.83047L41.3906 15.25C40.5391 15.0859 39.6562 15 38.75 15C34.1016 15 29.9922 17.3125 27.5 20.8438V17.5C27.5 16.1172 26.3828 15 25 15C23.6172 15 22.5 16.1172 22.5 17.5V22.5C22.5 23.8828 23.6172 25 25 25C25.1797 25 25.3594 24.9766 25.5312 24.9453C25.1875 26.1484 25 27.4297 25 28.75C25 29.1719 25.0156 29.5859 25.0547 30H25C23.6172 30 22.5 31.1172 22.5 32.5V37.5H6.76641C4.41016 37.5 2.5 35.5859 2.5 33.2344C2.5 32.75 2.58281 32.2656 2.74453 31.8125L11.9453 5.83047C12.5859 3.83437 14.5391 2.5 16.6562 2.5H22.4297L22.5 7.5Z" fill="#FF8A00"/>
</svg>
