<svg width="16" height="16" viewBox="0 0 16 16" fill="none" xmlns="http://www.w3.org/2000/svg">
<path d="M15.7529 14.7188L11.5654 10.5312C12.4717 9.42188 12.9717 8.025 12.9717 6.5C12.9717 2.90937 10.0614 0 6.4717 0C2.88201 0 -0.000183105 2.91031 -0.000183105 6.5C-0.000183105 10.0897 2.90982 13 6.4717 13C7.99639 13 9.39514 12.4716 10.5029 11.5925L14.6904 15.78C14.8654 15.9281 15.0592 16 15.2498 16C15.4404 16 15.6336 15.9268 15.7801 15.7803C16.0717 15.4875 16.0717 15.0125 15.7529 14.7188ZM1.49982 6.5C1.49982 3.74312 3.74295 1.5 6.49982 1.5C9.2567 1.5 11.4998 3.74312 11.4998 6.5C11.4998 9.25688 9.2567 11.5 6.49982 11.5C3.74295 11.5 1.49982 9.25625 1.49982 6.5Z" fill="#AAB7C6"/>
</svg>
