<svg width="18" height="18" viewBox="0 0 18 18" fill="none" xmlns="http://www.w3.org/2000/svg">
<path d="M17.434 5.85703C17.55 6.15938 17.4515 6.50039 17.2125 6.72187L15.6902 8.10703C15.7289 8.39883 15.75 8.69766 15.75 9C15.75 9.30234 15.7289 9.60117 15.6902 9.89297L17.2125 11.2781C17.4515 11.4996 17.55 11.8406 17.434 12.143C17.2793 12.5613 17.093 12.9656 16.882 13.3488L16.7168 13.6336C16.4847 14.0203 16.2246 14.3859 15.9398 14.734C15.7289 14.9836 15.3879 15.0715 15.0785 14.973L13.1203 14.3473C12.6492 14.7094 12.0972 15.0117 11.5734 15.2438L11.134 17.2512C11.0637 17.5676 10.8176 17.7926 10.4941 17.877C10.009 17.9578 9.50975 18 8.96834 18C8.49022 18 7.991 17.9578 7.50584 17.877C7.1824 17.7926 6.93631 17.5676 6.866 17.2512L6.42654 15.2438C5.87108 15.0117 5.35076 14.7094 4.87967 14.3473L2.92287 14.973C2.61209 15.0715 2.26932 14.9836 2.06119 14.734C1.77608 14.3859 1.51592 14.0203 1.28389 13.6336L1.11936 13.3488C0.905958 12.9656 0.720333 12.5613 0.564591 12.143C0.450684 11.8406 0.546661 11.4996 0.787833 11.2781L2.30869 9.89297C2.27002 9.60117 2.24998 9.30234 2.24998 9C2.24998 8.69766 2.27002 8.39883 2.30869 8.10703L0.787833 6.72187C0.546661 6.50039 0.450684 6.16289 0.564591 5.85703C0.720333 5.43867 0.90631 5.03438 1.11936 4.65117L1.28354 4.36641C1.51592 3.97969 1.77608 3.61406 2.06119 3.26777C2.26932 3.01641 2.61209 2.92922 2.92287 3.02836L4.87967 3.65273C5.35076 3.28922 5.87108 2.98688 6.42654 2.7573L6.866 0.749883C6.93631 0.430664 7.1824 0.177188 7.50584 0.123398C7.991 0.0422227 8.49022 0 8.99998 0C9.50975 0 10.009 0.0422227 10.4941 0.123398C10.8176 0.177188 11.0637 0.430664 11.134 0.749883L11.5734 2.7573C12.0972 2.98688 12.6492 3.28922 13.1203 3.65273L15.0785 3.02836C15.3879 2.92922 15.7289 3.01641 15.9398 3.26777C16.2246 3.61406 16.4847 3.97969 16.7168 4.36641L16.882 4.65117C17.093 5.03438 17.2793 5.43867 17.434 5.85703ZM8.99998 11.8125C10.5539 11.8125 11.8125 10.5539 11.8125 8.96836C11.8125 7.44609 10.5539 6.15586 8.99998 6.15586C7.44608 6.15586 6.18748 7.44609 6.18748 8.96836C6.18748 10.5539 7.44608 11.8125 8.99998 11.8125Z" fill="#AAB7C6"/>
</svg>
