<svg width="16" height="19" viewBox="0 0 16 19" fill="none" xmlns="http://www.w3.org/2000/svg">
<g clip-path="url(#clip0_1_217)">
<path d="M9.81071 11.2144H6.18929C2.77179 11.2144 0 13.9858 0 17.4036C0 18.0872 0.554286 18.6419 1.23786 18.6419H14.7629C15.4464 18.6429 16 18.0894 16 17.4036C16 13.9858 13.2286 11.2144 9.81071 11.2144Z" fill="#1C4B82"/>
<path opacity="0.4" d="M12.5714 4.92861C12.5714 7.45325 10.525 9.50003 8.00002 9.50003C5.47502 9.50003 3.42859 7.45361 3.42859 4.92861C3.42859 2.40361 5.47537 0.357178 8.00002 0.357178C10.525 0.357178 12.5714 2.40396 12.5714 4.92861Z" fill="#1C4B82"/>
</g>
<defs>
<clipPath id="clip0_1_217">
<rect width="16" height="18.2857" fill="white" transform="translate(0 0.357178)"/>
</clipPath>
</defs>
</svg>
