<svg width="14" height="14" viewBox="0 0 14 14" fill="none" xmlns="http://www.w3.org/2000/svg">
<path d="M7 0C3.13359 0 0 3.13359 0 7C0 10.8664 3.13359 14 7 14C10.8664 14 14 10.8664 14 7C14 3.13359 10.8664 0 7 0ZM7 12.6875C3.86367 12.6875 1.3125 10.1361 1.3125 7C1.3125 3.86395 3.86367 1.3125 7 1.3125C10.1363 1.3125 12.6875 3.86395 12.6875 7C12.6875 10.1361 10.1363 12.6875 7 12.6875ZM7 8.3125C7.3623 8.3125 7.65625 8.01855 7.65625 7.65625V4.15625C7.65625 3.79531 7.36367 3.5 7 3.5C6.63633 3.5 6.34375 3.79531 6.34375 4.15625V7.65625C6.34375 8.01992 6.63906 8.3125 7 8.3125ZM7 9.21758C6.52531 9.21758 6.14031 9.60258 6.14031 10.0773C6.14141 10.552 6.52422 10.9375 7 10.9375C7.47578 10.9375 7.85969 10.5525 7.85969 10.0778C7.85859 9.60312 7.47578 9.21758 7 9.21758Z" fill="#1C4B82"/>
</svg>
